<svg xmlns="http://www.w3.org/2000/svg" version="1.1" xmlns:xlink="http://www.w3.org/1999/xlink" xmlns:svgjs="http://svgjs.dev/svgjs" width="1500" height="1500" viewBox="0 0 1500 1500"><rect width="1500" height="1500" fill="#ffffff"></rect><g transform="matrix(0.6666666666666666,0,0,0.6666666666666666,249.39393939393938,438.58569500674764)"><svg viewBox="0 0 396 247" data-background-color="#ffffff" preserveAspectRatio="xMidYMid meet" height="935" width="1500" xmlns="http://www.w3.org/2000/svg" xmlns:xlink="http://www.w3.org/1999/xlink"><g id="tight-bounds" transform="matrix(1,0,0,1,0.2400000000000091,-0.09999999999999432)"><svg viewBox="0 0 395.52 247.2" height="247.2" width="395.52"><g><svg></svg></g><g><svg viewBox="0 0 395.52 247.2" height="247.2" width="395.52"><g transform="matrix(1,0,0,1,75.54432,63.4506396866021)"><svg viewBox="0 0 244.43135999999998 120.29872062679578" height="120.29872062679578" width="244.43135999999998"><g><svg viewBox="0 0 244.43135999999998 120.29872062679578" height="120.29872062679578" width="244.43135999999998"><g><svg viewBox="0 0 244.43135999999998 120.29872062679578" height="120.29872062679578" width="244.43135999999998"><g><svg viewBox="0 0 244.43135999999998 120.29872062679578" height="120.29872062679578" width="244.43135999999998"><g id="textblocktransform"><svg viewBox="0 0 244.43135999999998 120.29872062679578" height="120.29872062679578" width="244.43135999999998" id="textblock"><g><svg viewBox="0 0 244.43135999999998 64.88338160183066" height="64.88338160183066" width="244.43135999999998"><g transform="matrix(1,0,0,1,0,0)"><svg width="244.43135999999998" viewBox="1.1 -33.9 131.09 34.8" height="64.88338160183066" data-palette-color="#471aa0"><path d="M13.4 0L1.1 0 1.1-0.5 2.15-0.9Q3.75-1.55 3.75-3.45L3.75-3.45 3.75-29.55Q3.75-31.55 2.15-32.1L2.15-32.1 1.1-32.5 1.1-33 14.3-33Q19.6-33 23.43-31.03 27.25-29.05 29.33-25.38 31.4-21.7 31.4-16.55L31.4-16.55Q31.4-11.3 29.15-7.6 26.9-3.9 22.88-1.95 18.85 0 13.4 0L13.4 0ZM11.25-32L11.25-1 13.4-1Q17-1 19.2-2.43 21.4-3.85 22.43-7.23 23.45-10.6 23.45-16.5L23.45-16.5Q23.45-22.4 22.43-25.78 21.4-29.15 19.25-30.58 17.1-32 13.6-32L13.6-32 11.25-32ZM58.45 0L33.5 0 33.5-0.5 34.65-0.95Q35.5-1.3 35.82-1.88 36.15-2.45 36.15-3.45L36.15-3.45 36.15-29.55Q36.15-30.55 35.87-31.13 35.6-31.7 34.65-32.05L34.65-32.05 33.5-32.5 33.5-33 57.45-33 57.75-25.3 57.25-25.3 55.1-30Q54.65-30.9 54.15-31.45 53.65-32 52.65-32L52.65-32 43.65-32 43.65-17.55 49-17.55Q50-17.55 50.52-18.07 51.05-18.6 51.45-19.5L51.45-19.5 52.45-21.5 52.95-21.5 52.95-12.5 52.45-12.5 51.45-14.6Q51-15.5 50.5-16.03 50-16.55 49-16.55L49-16.55 43.65-16.55 43.65-1 53.75-1Q54.75-1 55.3-1.53 55.85-2.05 56.2-3L56.2-3 58.25-7.7 58.75-7.7 58.45 0ZM67.75 0L61.15 0 61.15-0.5 62.15-0.85Q63.85-1.4 63.85-3.7L63.85-3.7 63.85-29.3Q63.85-30.3 63.62-30.9 63.4-31.5 62.45-31.9L62.45-31.9 61.15-32.5 61.15-33 70.8-33 80.05-8.8 88.75-33 98.59-33 98.59-32.5 97.8-32.2Q96.84-31.85 96.5-31.23 96.15-30.6 96.15-29.6L96.15-29.6 96.15-3.45Q96.15-2.45 96.4-1.9 96.65-1.35 97.59-0.95L97.59-0.95 98.59-0.5 98.59 0 86.15 0 86.15-0.5 87.2-0.95Q88.15-1.35 88.4-1.9 88.65-2.45 88.65-3.45L88.65-3.45 88.65-14.7 88.75-29 78.3 0 75.8 0 64.9-28.65 65.05-16.2 65.05-3.6Q65.05-2.5 65.37-1.83 65.7-1.15 66.65-0.85L66.65-0.85 67.75-0.5 67.75 0ZM116.44 0.9L116.44 0.9Q113.39 0.9 110.57-0.2 107.74-1.3 105.52-3.48 103.29-5.65 101.99-8.9 100.69-12.15 100.69-16.5L100.69-16.5Q100.69-20.8 101.99-24.05 103.29-27.3 105.54-29.48 107.79-31.65 110.62-32.77 113.44-33.9 116.44-33.9L116.44-33.9Q119.49-33.9 122.32-32.83 125.14-31.75 127.37-29.58 129.59-27.4 130.89-24.13 132.19-20.85 132.19-16.5L132.19-16.5Q132.19-12.25 130.89-8.97 129.59-5.7 127.37-3.53 125.14-1.35 122.32-0.23 119.49 0.9 116.44 0.9ZM116.44-0.15L116.44-0.15Q119.19-0.15 120.89-1.63 122.59-3.1 123.37-6.68 124.14-10.25 124.14-16.5L124.14-16.5Q124.14-22.8 123.37-26.38 122.59-29.95 120.89-31.43 119.19-32.9 116.44-32.9L116.44-32.9Q113.74-32.9 112.04-31.43 110.34-29.95 109.57-26.38 108.79-22.8 108.79-16.5L108.79-16.5Q108.79-10.25 109.57-6.68 110.34-3.1 112.04-1.63 113.74-0.15 116.44-0.15Z" opacity="1" transform="matrix(1,0,0,1,0,0)" fill="#471aa0" class="wordmark-text-0" data-fill-palette-color="primary" id="text-0"></path></svg></g></svg></g><g transform="matrix(1,0,0,1,0,80.20079079686444)"><svg viewBox="0 0 244.43135999999998 40.09792982993135" height="40.09792982993135" width="244.43135999999998"><g transform="matrix(1,0,0,1,0,0)"><svg width="244.43135999999998" viewBox="3.39 -37.5 290.51 47.66" height="40.09792982993135" data-palette-color="#471aa0"><path d="M7.96-21.17L7.96 0 3.39 0 3.39-26.42 7.71-26.42 7.96-21.17ZM7.03-14.23L4.91-14.31Q4.93-17.92 6.14-20.76 7.35-23.61 9.73-25.26 12.11-26.9 15.65-26.9L15.65-26.9Q19.36-26.9 21.78-24.73 24.19-22.56 24.19-17.6L24.19-17.6 24.19 0 19.63 0 19.63-17.38Q19.63-19.46 18.93-20.72 18.24-21.97 16.97-22.55 15.7-23.12 13.99-23.12L13.99-23.12Q12.01-23.12 10.68-22.41 9.35-21.7 8.54-20.46 7.74-19.21 7.39-17.61 7.03-16.02 7.03-14.23L7.03-14.23ZM24.15-16.72L21.09-15.8Q21.12-18.68 22.33-21.22 23.54-23.75 25.88-25.33 28.22-26.9 31.59-26.9L31.59-26.9Q34.42-26.9 36.4-25.9 38.38-24.9 39.4-22.8 40.43-20.7 40.43-17.36L40.43-17.36 40.43 0 35.86 0 35.86-17.41Q35.86-19.63 35.17-20.87 34.47-22.12 33.22-22.62 31.96-23.12 30.25-23.12L30.25-23.12Q28.76-23.12 27.62-22.61 26.49-22.09 25.72-21.2 24.95-20.31 24.55-19.17 24.15-18.02 24.15-16.72L24.15-16.72ZM69.4-12.92L69.4-13.48Q69.4-17.31 70.86-20.34 72.33-23.36 75.02-25.13 77.7-26.9 81.39-26.9L81.39-26.9Q85.12-26.9 87.83-25.13 90.54-23.36 92-20.34 93.45-17.31 93.45-13.48L93.45-13.48 93.45-12.92Q93.45-9.11 92-6.07 90.54-3.03 87.84-1.27 85.15 0.49 81.44 0.49L81.44 0.49Q77.73 0.49 75.03-1.27 72.33-3.03 70.86-6.07 69.4-9.11 69.4-12.92L69.4-12.92ZM73.97-13.48L73.97-12.92Q73.97-10.3 74.8-8.08 75.63-5.86 77.27-4.52 78.92-3.17 81.44-3.17L81.44-3.17Q83.93-3.17 85.57-4.52 87.22-5.86 88.05-8.08 88.88-10.3 88.88-12.92L88.88-12.92 88.88-13.48Q88.88-16.09 88.05-18.31 87.22-20.53 85.56-21.89 83.9-23.24 81.39-23.24L81.39-23.24Q78.92-23.24 77.26-21.89 75.6-20.53 74.78-18.31 73.97-16.09 73.97-13.48L73.97-13.48ZM133.04-3.17L133.04-3.17Q134.65-3.17 136.02-3.85 137.38-4.52 138.26-5.69 139.14-6.86 139.26-8.35L139.26-8.35 143.59-8.35Q143.46-6.01 142-3.99 140.53-1.98 138.19-0.74 135.85 0.49 133.04 0.49L133.04 0.49Q129.06 0.49 126.45-1.33 123.83-3.15 122.55-6.15 121.27-9.16 121.27-12.7L121.27-12.7 121.27-13.72Q121.27-17.29 122.56-20.28 123.86-23.27 126.47-25.09 129.08-26.9 133.04-26.9L133.04-26.9Q136.14-26.9 138.47-25.65 140.8-24.39 142.13-22.23 143.46-20.07 143.59-17.33L143.59-17.33 139.26-17.33Q139.14-18.97 138.35-20.31 137.55-21.66 136.2-22.45 134.84-23.24 133.04-23.24L133.04-23.24Q130.28-23.24 128.7-21.83 127.13-20.41 126.48-18.23 125.84-16.04 125.84-13.72L125.84-13.72 125.84-12.7Q125.84-10.38 126.47-8.18 127.11-5.98 128.68-4.58 130.26-3.17 133.04-3.17ZM176.56-37.5L176.56 0 171.99 0 171.99-37.5 176.56-37.5ZM192.67-26.42L181.2-14.11 174.7-7.42 174.34-12.21 178.98-17.7 187.13-26.42 192.67-26.42ZM188.52 0L179.12-12.62 181.49-16.63 193.89 0 188.52 0ZM236.83-6.1L236.83-26.42 241.39-26.42 241.39 0 237.05 0 236.83-6.1ZM237.68-11.67L239.59-11.72Q239.59-8.2 238.59-5.44 237.59-2.69 235.31-1.1 233.04 0.49 229.24 0.49L229.24 0.49Q225.35 0.49 222.96-1.81 220.57-4.1 220.57-9.38L220.57-9.38 220.57-26.42 225.13-26.42 225.13-9.33Q225.13-6.93 225.83-5.63 226.53-4.32 227.64-3.82 228.75-3.32 229.97-3.32L229.97-3.32Q232.85-3.32 234.53-4.43 236.22-5.54 236.95-7.45 237.68-9.35 237.68-11.67L237.68-11.67ZM276.13-21.34L276.13 10.16 271.56 10.16 271.56-26.42 275.71-26.42 276.13-21.34ZM293.9-13.43L293.9-12.92Q293.9-9.06 292.7-6.03 291.51-3 289.22-1.26 286.94 0.49 283.67 0.49L283.67 0.49Q280.28 0.49 277.98-0.98 275.69-2.44 274.39-5.14 273.1-7.84 272.71-11.52L272.71-11.52 272.71-14.36Q273.1-18.24 274.4-21.04 275.71-23.85 277.99-25.38 280.28-26.9 283.6-26.9L283.6-26.9Q286.92-26.9 289.21-25.22 291.51-23.54 292.7-20.5 293.9-17.46 293.9-13.43L293.9-13.43ZM289.33-12.92L289.33-13.43Q289.33-16.06 288.59-18.27 287.84-20.48 286.27-21.8 284.7-23.12 282.23-23.12L282.23-23.12Q280.54-23.12 279.3-22.53 278.05-21.95 277.18-20.96 276.3-19.97 275.75-18.71 275.2-17.46 274.93-16.11L274.93-16.11 274.93-9.74Q275.42-8.03 276.28-6.53 277.15-5.03 278.6-4.1 280.06-3.17 282.28-3.17L282.28-3.17Q284.72-3.17 286.28-4.52 287.84-5.86 288.59-8.07 289.33-10.28 289.33-12.92L289.33-12.92Z" opacity="1" transform="matrix(1,0,0,1,0,0)" fill="#471aa0" class="slogan-text-1" data-fill-palette-color="secondary" id="text-1"></path></svg></g></svg></g></svg></g></svg></g><g></g></svg></g></svg></g></svg></g><g><path d="M101.628 48.133A122.216 122.216 0 0 1 293.892 48.133L288.041 48.133A116.364 116.364 0 0 0 107.479 48.133L101.628 48.133M101.628 199.067A122.216 122.216 0 0 0 293.892 199.067L288.041 199.067A116.364 116.364 0 0 1 107.479 199.067L101.628 199.067" fill="#471aa0" stroke="transparent" data-fill-palette-color="tertiary"></path></g></svg></g><defs></defs></svg><rect width="395.52" height="247.2" fill="none" stroke="none" visibility="hidden"></rect></g></svg></g></svg>